<svg xmlns="http://www.w3.org/2000/svg" viewBox="0 0 718.21 196.25" width="718.21" height="196.25"><defs><style>.cls-1{fill:#6b859e;}.cls-2{fill:#272525;}</style></defs><title>Asset 1</title><g id="Layer_2" data-name="Layer 2"><g id="Layer_1-2" data-name="Layer 1"><path class="cls-1" d="M352.27,157.62h4.41L379.41,189V157.62h3.9v38h-3.7l-23.45-32.27v32.27h-3.9Z"/><path class="cls-1" d="M393,157.62h25.14v3.85H397.06V174h20.57v3.8H397.06v14.11h21.29v3.69H393Z"/><path class="cls-1" d="M438.51,161.47H424.25v-3.85h32.58v3.85H442.56v34.17h-4.05Z"/><path class="cls-1" d="M461.75,157.62h4.16l10,31.45,10.21-31.45h3.49l10.16,31.45,10.05-31.45h3.9L501.5,195.89H498l-10.26-31.65-10.21,31.65H474Z"/><path class="cls-1" d="M517.36,176.6c0-13.54,6.92-19.6,19.08-19.6s19.19,6.05,19.19,19.6-7,19.65-19.19,19.65S517.36,190.2,517.36,176.6Zm34.22,0c0-10.26-4.77-15.8-15.13-15.8s-15,5.54-15,15.8,4.72,15.86,15,15.86S551.58,187,551.58,176.65Z"/><path class="cls-1" d="M579.23,180.14H567.84v15.5h-4v-38H580.3c8.82,0,12.83,3.54,12.83,11.08,0,6.56-3.13,10.41-9.75,11.28l9.18,15.65h-4.31Zm1.13-3.69c5.39,0,8.72-1.64,8.72-7.64s-3.23-7.44-8.87-7.44H567.84v15.08Z"/><path class="cls-1" d="M613.29,175.47l-7.59,8.31v11.85h-3.95v-38h3.95v21l19.24-21h4.67L616,172.55l15.49,23.09h-4.57Z"/><path class="cls-1" d="M634.84,191.79l2.05-3.08a24.56,24.56,0,0,0,13.59,3.85c7.85,0,11.34-2.21,11.34-7.44,0-5.39-4.51-6.15-11.34-7.38-8.21-1.44-13.75-2.83-13.75-10.52,0-7.34,4.72-10.21,13.75-10.21,6,0,10.21,1.34,13.24,3.39l-2.15,3.28a20.75,20.75,0,0,0-11.08-3c-6.82,0-9.75,1.9-9.75,6.41,0,4.82,4,5.75,10.72,7,8.31,1.49,14.31,2.72,14.31,10.88,0,7.54-4.82,11.18-15.18,11.18A27.5,27.5,0,0,1,634.84,191.79Z"/><path class="cls-2" d="M705.52.51c-53.44,0-55.71,23.94-55.71,57.72v82.93h12.6V58.23c0-25.46-1-45.88,43.11-45.88a109.19,109.19,0,0,1,12.69.69V1C714.32.69,710.11.51,705.52.51Z"/><path class="cls-2" d="M82.19,87.22V3.28H95.05V87.47c0,24.2-.25,44.62,44.11,44.62,44.11,0,43.11-20.41,43.11-45.88V3.28h12.6V86.21c0,33.78-2.27,57.73-55.71,57.73C85.47,143.93,82.19,120,82.19,87.22Z"/><path class="cls-2" d="M328.88,57.22v83.94H316V57c0-24.2.25-44.62-44.11-44.62-44.12,0-43.1,20.42-43.1,45.88v82.93H216.2V58.23c0-33.78,2.27-57.72,55.71-57.72C325.6.51,328.88,24.45,328.88,57.22Z"/><path class="cls-2" d="M352.27,3.53h12.34V141.16H352.27Z"/><path class="cls-2" d="M387.71,3.53h64.43c32,0,46.44,15.88,46.44,44.11,0,28.42-14.3,45.7-46.62,45.7H400.05v47.82H387.71ZM452.33,81c22.26,0,33.32-10.85,33.32-32.77s-11.94-32.31-33.88-32.31H400.05V81Z"/><path class="cls-2" d="M512.95,71.84C512.95,31.26,524.55,0,576.48,0c53.69,0,55.45,36,55.2,74.11H525.3c.25,33.53,8.57,58.49,52.18,58.49,23.19,0,33.78-6.31,45.12-14.62l7.05,9.33c-12.6,9.33-27.47,16.64-52.18,16.64C523,143.93,512.95,112.42,512.95,71.84Zm12.61-9.33h93.77c-1.26-27.47-3-50.92-43.11-50.92C537.65,11.6,527.07,32.52,525.55,62.51Z"/><path d="M4.79,171c53.44,0,55.71-23.95,55.71-57.73V3.28H47.9v110c0,25.46,1,45.88-43.1,45.88-1.67,0-3.25,0-4.79-.1V171C1.55,171,3.15,171,4.79,171Z"/><path class="cls-2" d="M690,141.76a8.7,8.7,0,1,1,8.7-8.7,8.71,8.71,0,0,1-8.7,8.7Zm0-16.28a7.58,7.58,0,1,0,7.57,7.58,7.59,7.59,0,0,0-7.57-7.58Z"/><path class="cls-2" d="M690.56,134.22h-2.79v3.84h-1.33v-10h4.45c2.53,0,3.51,1,3.51,3a2.74,2.74,0,0,1-2.41,3l2.26,3.93h-1.45Zm.31-1.25c1.37,0,2.15-.39,2.15-1.85s-.76-1.78-2.19-1.78h-3.06V133Z"/></g></g></svg>